HIERARCHY
ROOT Hips
{
	OFFSET 0.000000 88.474243 0.000000
	CHANNELS 6 Xposition Yposition Zposition Zrotation Yrotation Xrotation 
	JOINT Hips_Spine
	{
		OFFSET 0.000000 0.000000 0.000000
		CHANNELS 3 Zrotation Yrotation Xrotation
		JOINT Spine
		{
			OFFSET 0.005100 8.711998 -0.691000
			CHANNELS 3 Zrotation Yrotation Xrotation
			JOINT Spine1
			{
				OFFSET -0.009200 8.660301 -1.275000
				CHANNELS 3 Zrotation Yrotation Xrotation
				JOINT Spine2
				{
					OFFSET 0.006300 9.852501 -1.857000
					CHANNELS 3 Zrotation Yrotation Xrotation
					JOINT Spine2_Neck
					{
						OFFSET 0.000000 0.000000 0.000000
						CHANNELS 3 Zrotation Yrotation Xrotation
						JOINT Neck
						{
							OFFSET 0.016300 11.420799 -0.263300
							CHANNELS 3 Zrotation Yrotation Xrotation
							End Site #name: Head
							{
								OFFSET -0.019200 9.262405 2.362500
							}
						}
					}
					JOINT Spine2_LeftShoulder
					{
						OFFSET 0.000000 0.000000 0.000000
						CHANNELS 3 Zrotation Yrotation Xrotation
						JOINT LeftShoulder
						{
							OFFSET 5.616900 6.732201 -0.345700
							CHANNELS 3 Zrotation Yrotation Xrotation
							JOINT LeftArm
							{
								OFFSET 10.664888 -0.183372 -2.440700
								CHANNELS 3 Zrotation Yrotation Xrotation
								JOINT LeftForeArm
								{
									OFFSET 27.459126 0.000000 0.000000
									CHANNELS 3 Zrotation Yrotation Xrotation
									End Site #name: LeftHand
									{
										OFFSET 21.306858 0.000000 0.000000
									}
								}
							}
						}
					}
					JOINT Spine2_RightShoulder
					{
						OFFSET 0.000000 0.000000 0.000000
						CHANNELS 3 Zrotation Yrotation Xrotation
						JOINT RightShoulder
						{
							OFFSET -5.580300 6.737503 -0.344400
							CHANNELS 3 Zrotation Yrotation Xrotation
							JOINT RightArm
							{
								OFFSET -10.679335 -0.188484 -2.383900
								CHANNELS 3 Zrotation Yrotation Xrotation
								JOINT RightForeArm
								{
									OFFSET -27.503529 0.000000 0.000000
									CHANNELS 3 Zrotation Yrotation Xrotation
									End Site #name: RightHand
									{
										OFFSET -21.306808 0.000000 0.000000
									}
								}
							}
						}
					}
				}
			}
		}
	}
	JOINT Hips_LeftUpLeg
	{
		OFFSET 0.000000 0.000000 0.000000
		CHANNELS 3 Zrotation Yrotation Xrotation
		JOINT LeftUpLeg
		{
			OFFSET 6.857700 -6.739601 0.312100
			CHANNELS 3 Zrotation Yrotation Xrotation
			JOINT LeftLeg
			{
				OFFSET -0.367590 -34.731552 -4.572400
				CHANNELS 3 Zrotation Yrotation Xrotation
				End Site #name: LeftFoot
				{
					OFFSET 0.367590 -34.656704 -6.067400
				}
			}
		}
	}
	JOINT Hips_RightUpLeg
	{
		OFFSET 0.000000 0.000000 0.000000
		CHANNELS 3 Zrotation Yrotation Xrotation
		JOINT RightUpLeg
		{
			OFFSET -6.876100 -6.733299 0.301000
			CHANNELS 3 Zrotation Yrotation Xrotation
			JOINT RightLeg
			{
				OFFSET 0.347353 -34.795158 -4.515900
				CHANNELS 3 Zrotation Yrotation Xrotation
				End Site #name: RightFoot
				{
					OFFSET -0.347353 -34.589367 -6.070300
				}
			}
		}
	}
}
MOTION
Frames: 11
Frame Time: 0.041667
-0.059716 -0.297780 -0.311205 -11.198104 -8.724838 -1.845553 0.000000 0.000000 0.000000 -8.966679 0.477136 18.583947 -2.814215 1.326874 4.920854 0.000000 0.000000 0.000000 -3.028533 0.651558 4.735195 3.685558 2.797891 7.346274 -3.423394 0.370132 6.468855 -2.666069 -1.145727 1.076066 -41.482266 -34.761118 10.124545 0.376137 -63.520365 -0.785596 -3.904275 1.095738 5.566242 -11.024050 27.825490 -0.067478 62.227270 48.583949 15.541158 0.167907 71.188729 0.403378 -0.000000 -0.000000 -0.000000 1.760922 1.314857 -26.092253 3.659537 9.209611 61.180340 0.000000 0.000000 -0.000000 -6.425049 -4.362296 -26.670405 1.895442 1.980332 15.936331 
-2.546584 -0.832454 3.710733 1.692591 -19.508469 -3.102519 0.000000 0.000000 -0.000000 -7.032950 1.184637 10.004483 -2.511520 0.756289 5.336774 0.000000 0.000000 0.000000 -2.538549 0.612501 5.524280 3.950413 2.280499 5.716729 -2.770138 0.542624 5.286822 -6.480501 -6.753753 1.942401 -48.886004 -38.441717 13.748821 0.594057 -54.934788 -0.496112 -2.985071 0.724842 4.985467 -7.492891 26.387237 0.670127 71.463029 46.742412 31.447520 0.505088 70.343531 0.660297 -0.000000 -0.000000 -0.000000 0.854853 6.830215 -22.011377 0.056617 7.716128 62.752180 0.000000 0.000000 0.000000 -5.081500 2.275250 -19.498280 3.116351 5.823458 23.757239 
-4.946639 -1.350537 6.888434 4.755772 -20.745990 -10.278649 -0.000000 0.000000 -0.000000 -6.085273 -0.189334 8.698442 -1.552497 0.220291 4.362519 0.000000 0.000000 0.000000 -2.025146 0.327479 5.130374 4.248986 3.230990 4.427721 -1.723186 0.249452 4.752639 -6.860980 -7.378591 2.158650 -52.274477 -35.068409 19.584649 0.414625 -47.767790 -0.474421 -1.856593 0.080471 4.562366 -6.713633 23.979772 0.615222 68.804904 43.737751 31.639548 0.325511 75.409152 0.455487 -0.000000 -0.000000 0.000000 -6.359866 6.715418 -28.946594 -4.632587 5.126426 44.980014 0.000000 0.000000 0.000000 -7.193421 2.645176 -18.844219 3.521780 5.904577 33.425602 
-6.826439 -1.293378 10.001688 6.145896 -21.561183 -11.592572 -0.000000 0.000000 -0.000000 -5.354240 0.198565 8.277980 -1.151382 0.206103 3.544589 0.000000 0.000000 0.000000 -1.368890 0.316730 4.059944 5.397958 3.202609 4.573356 -1.178558 0.104066 3.895870 -6.001376 -8.518815 2.284394 -52.213383 -24.934494 24.908838 0.292278 -40.412272 -0.293852 -1.273610 -0.162052 3.892233 -4.865408 21.136543 0.973457 61.942069 47.725218 29.332309 0.424513 74.728232 0.288218 -0.000000 -0.000000 0.000000 -9.081949 4.824575 -38.113239 -4.113186 5.117914 32.041337 0.000000 0.000000 0.000000 -8.253295 0.116819 -24.105862 6.240012 5.888013 49.460948 
-8.035761 -1.090762 13.426021 7.268347 -23.007914 -12.558697 -0.000000 0.000000 -0.000000 -4.009288 0.569077 7.033789 -0.808511 0.253892 2.846888 0.000000 0.000000 0.000000 -0.963544 0.282562 3.140645 6.833542 3.104635 4.560530 -0.862999 -0.040386 3.240562 -4.223524 -8.128281 2.171249 -47.306191 -13.470856 27.879568 0.137126 -38.626497 -0.231244 -1.010099 -0.075891 3.297456 -2.610363 19.174636 1.497756 62.278576 48.321060 36.341805 0.023797 70.473013 -0.086561 -0.000000 -0.000000 0.000000 -11.851468 4.129974 -42.291984 -4.265344 4.037770 28.750302 0.000000 0.000000 0.000000 -11.236126 -1.297289 -28.222739 7.946630 4.949532 60.719371 
-8.813710 -1.111522 17.040082 7.989398 -25.195135 -13.282113 -0.000000 0.000000 -0.000000 -2.622109 0.712854 5.271388 -0.144758 0.419016 2.585642 0.000000 0.000000 0.000000 -0.352697 0.371454 2.730867 7.659697 3.035762 4.648959 -0.429323 -0.078644 3.067107 -2.422041 -6.615351 1.832311 -44.444701 -3.522598 26.912872 0.005466 -39.864719 -0.108577 -0.426032 0.083013 3.022873 -0.858694 16.441897 1.666363 64.176830 46.237055 45.263734 -0.001865 65.889715 -0.043838 -0.000000 -0.000000 0.000000 -13.764222 3.885761 -44.379475 -4.495940 2.741009 27.989872 0.000000 0.000000 0.000000 -13.005319 -3.277498 -30.217408 6.570835 3.953354 65.689160 
-9.392738 -1.327393 20.571925 8.738342 -26.749155 -14.133008 -0.000000 0.000000 -0.000000 -1.405772 0.837802 3.183519 0.601374 0.691482 2.581055 0.000000 0.000000 0.000000 0.391488 0.624838 2.527065 7.879392 2.978621 4.135845 0.244785 0.160045 2.972979 -1.243899 -4.715321 1.456296 -43.125573 5.440188 24.806345 -0.084379 -43.629624 0.070849 0.322842 0.392716 2.726970 -0.023701 14.043314 1.727819 66.468040 43.494234 51.853883 0.116342 63.497358 0.031813 -0.000000 -0.000000 0.000000 -14.527597 4.033350 -46.066377 -4.691292 1.644855 29.436262 0.000000 0.000000 0.000000 -13.511176 -4.961689 -30.097412 3.627570 3.185558 65.530043 
-9.893785 -1.548957 23.961494 9.767338 -27.527300 -15.082970 -0.000000 0.000000 -0.000000 -0.582546 0.815865 1.753745 1.282229 1.133345 2.605124 0.000000 0.000000 0.000000 1.048068 1.039371 2.305481 7.824464 2.807059 3.372733 0.919844 0.655416 2.730432 -0.978302 -2.689162 1.156235 -42.389976 11.528391 25.019644 -0.129136 -49.063273 0.180512 0.960714 0.801190 2.443526 0.527488 12.358017 1.901899 67.152173 41.229436 53.319787 0.215959 63.701440 0.135358 -0.000000 -0.000000 0.000000 -14.582066 3.933521 -48.527784 -4.566627 1.126365 31.385321 0.000000 0.000000 0.000000 -13.699194 -5.888226 -28.775641 -0.993757 2.131186 60.564951 
-10.333454 -1.584971 27.289485 10.544791 -27.701402 -15.279868 -0.000000 -0.000000 -0.000000 0.036111 0.785240 0.762341 1.842654 1.630967 2.456194 0.000000 0.000000 0.000000 1.641433 1.536972 1.887028 7.569596 2.431241 2.483160 1.491707 1.222183 2.425322 -1.117304 -0.902836 0.902125 -42.720117 14.593519 27.071370 -0.137671 -54.613810 0.277291 1.544453 1.277898 2.185698 0.931896 11.363155 2.118697 66.889548 39.796296 52.342904 0.280340 64.888373 0.216901 -0.000000 -0.000000 0.000000 -14.528368 3.423545 -51.639956 -4.072747 1.202887 33.092918 0.000000 0.000000 0.000000 -13.446651 -6.000939 -26.236149 -4.684399 0.418778 51.674200 
-10.715463 -1.426967 30.628714 11.097819 -27.059576 -14.830341 -0.000000 -0.000000 -0.000000 0.517700 0.785762 0.403932 2.325509 2.128681 2.286584 0.000000 0.000000 0.000000 2.075685 1.994374 1.664844 7.334242 1.905318 1.640497 1.945312 1.704210 2.224966 -1.291997 0.308344 0.747809 -43.443784 15.347697 30.917980 -0.127549 -57.627567 0.355889 1.996669 1.780390 1.942856 1.631177 11.122199 2.381021 66.419265 38.918126 50.170679 0.250010 66.141126 0.188391 -0.000000 -0.000000 0.000000 -14.767170 2.605452 -55.134302 -3.538981 1.534286 34.038583 0.000000 0.000000 0.000000 -12.616562 -6.929176 -25.439315 -1.613990 0.581216 44.923062 
-11.035025 -1.227478 34.073176 11.413141 -25.658749 -13.960616 -0.000000 -0.000000 -0.000000 0.627238 0.824705 0.140977 2.731049 2.504043 2.163029 0.000000 0.000000 0.000000 2.443858 2.440924 1.634256 7.083908 1.373297 0.989338 2.323436 2.111100 2.200244 -1.472704 0.938958 0.674837 -45.399759 14.632087 35.112212 -0.123568 -57.960070 0.416265 2.359335 2.149874 1.879981 2.757288 11.505108 2.800118 66.377842 38.431334 48.364004 0.175831 66.579874 0.125371 -0.000000 -0.000000 0.000000 -15.301303 2.072921 -58.463073 -3.129746 1.834141 34.445055 0.000000 0.000000 0.000000 -11.602864 -8.542812 -25.088186 3.699821 3.024950 42.458268 
